HIERARCHY
ROOT Hips
{
	OFFSET 0.000000 71.427986 0.000000
	CHANNELS 6 Xposition Yposition Zposition Xrotation Yrotation Zrotation
	JOINT Pelvis
	{
		OFFSET 0.000000 0.000000 0.000000
		CHANNELS 3 Xrotation Yrotation Zrotation
		JOINT LeftUpLeg
		{
			OFFSET 6.797100 -2.508499 -1.318700
			CHANNELS 3 Xrotation Yrotation Zrotation
			JOINT LeftLeg
			{
				OFFSET 0.069008 -29.241863 0.690200
				CHANNELS 3 Xrotation Yrotation Zrotation
				JOINT LeftFoot
				{
					OFFSET -0.069008 -29.568123 -0.266800
					CHANNELS 3 Xrotation Yrotation Zrotation
					JOINT LeftToeBase
					{
						OFFSET 3.145500 -8.631000 16.059900
						CHANNELS 3 Xrotation Yrotation Zrotation
						End Site
						{
							OFFSET 0.000000 18.501587 0.000000
						}
					}
				}
			}
			JOINT Left_ShortSleeve
			{
				OFFSET 0.265923 -10.480953 1.153800
				CHANNELS 3 Xrotation Yrotation Zrotation
				End Site
				{
					OFFSET 1.725763 19.823879 0.000000
				}
			}
		}
		JOINT RightUpLeg
		{
			OFFSET -6.797100 -2.508499 -1.318700
			CHANNELS 3 Xrotation Yrotation Zrotation
			JOINT RightLeg
			{
				OFFSET -0.082453 -29.241932 0.688000
				CHANNELS 3 Xrotation Yrotation Zrotation
				JOINT RightFoot
				{
					OFFSET 0.082453 -29.568058 -0.264600
					CHANNELS 3 Xrotation Yrotation Zrotation
					JOINT RightToeBase
					{
						OFFSET -3.115300 -8.682800 16.113400
						CHANNELS 3 Xrotation Yrotation Zrotation
						End Site
						{
							OFFSET 0.000000 18.567114 0.000000
						}
					}
				}
			}
			JOINT Right_ShortSleeve
			{
				OFFSET -0.265923 -10.480953 1.153800
				CHANNELS 3 Xrotation Yrotation Zrotation
				End Site
				{
					OFFSET -1.725766 19.823910 0.000000
				}
			}
		}
	}
	JOINT Spine
	{
		OFFSET 0.000000 13.368103 0.470500
		CHANNELS 3 Xrotation Yrotation Zrotation
		JOINT Spine1
		{
			OFFSET 0.147000 13.837402 0.538800
			CHANNELS 3 Xrotation Yrotation Zrotation
			JOINT Spine2
			{
				OFFSET 0.168000 16.242897 -1.435500
				CHANNELS 3 Xrotation Yrotation Zrotation
				JOINT Neck
				{
					OFFSET 0.217200 18.631500 -1.679100
					CHANNELS 3 Xrotation Yrotation Zrotation
					JOINT Head
					{
						OFFSET 0.000000 6.599396 1.385900
						CHANNELS 3 Xrotation Yrotation Zrotation
						JOINT Hat
						{
							OFFSET -0.532200 27.220596 -10.096100
							CHANNELS 3 Xrotation Yrotation Zrotation
							End Site
							{
								OFFSET 0.000000 22.029861 0.000000
							}
						}
						JOINT HairD
						{
							OFFSET -10.777400 17.437393 -1.325900
							CHANNELS 3 Xrotation Yrotation Zrotation
							JOINT HairD1
							{
								OFFSET -3.290299 -11.051193 1.062200
								CHANNELS 3 Xrotation Yrotation Zrotation
								End Site
								{
									OFFSET 0.000000 11.579437 0.000000
								}
							}
						}
						JOINT HairB
						{
							OFFSET -10.777400 17.437393 1.467900
							CHANNELS 3 Xrotation Yrotation Zrotation
							JOINT HairB1
							{
								OFFSET -1.561200 -12.956299 3.590200
								CHANNELS 3 Xrotation Yrotation Zrotation
								End Site
								{
									OFFSET 0.000000 13.534866 0.000000
								}
							}
						}
						JOINT HairA
						{
							OFFSET 9.713100 17.437393 1.467900
							CHANNELS 3 Xrotation Yrotation Zrotation
							JOINT HairA1
							{
								OFFSET 1.561200 -12.956299 3.590200
								CHANNELS 3 Xrotation Yrotation Zrotation
								End Site
								{
									OFFSET 0.000000 13.534866 0.000000
								}
							}
						}
						JOINT HairC
						{
							OFFSET 9.713100 17.437393 -1.325900
							CHANNELS 3 Xrotation Yrotation Zrotation
							JOINT HairC1
							{
								OFFSET 3.290300 -11.051193 1.062200
								CHANNELS 3 Xrotation Yrotation Zrotation
								End Site
								{
									OFFSET 0.000000 11.579437 0.000000
								}
							}
						}
					}
				}
				JOINT LeftShoulder
				{
					OFFSET 5.101800 15.108002 -2.763700
					CHANNELS 3 Xrotation Yrotation Zrotation
					JOINT LeftArm
					{
						OFFSET 9.825497 2.506317 -1.597400
						CHANNELS 3 Xrotation Yrotation Zrotation
						JOINT LeftForeArm
						{
							OFFSET 21.966244 0.000000 0.000000
							CHANNELS 3 Xrotation Yrotation Zrotation
							JOINT LeftHand
							{
								OFFSET 33.879036 0.000000 0.000000
								CHANNELS 3 Xrotation Yrotation Zrotation
								JOINT LeftHandThumb1
								{
									OFFSET 6.715286 -2.359680 3.363841
									CHANNELS 3 Xrotation Yrotation Zrotation
									JOINT LeftHandThumb2
									{
										OFFSET 2.507072 -1.447464 1.447461
										CHANNELS 3 Xrotation Yrotation Zrotation
										JOINT LeftHandThumb3
										{
											OFFSET 2.898338 -1.673355 1.673357
											CHANNELS 3 Xrotation Yrotation Zrotation
											End Site
											{
												OFFSET -0.295959 3.727692 -0.131651
											}
										}
									}
								}
								JOINT LeftHandIndex1
								{
									OFFSET 14.190811 -0.254547 3.840278
									CHANNELS 3 Xrotation Yrotation Zrotation
									JOINT LeftHandIndex2
									{
										OFFSET 3.551727 0.000000 -0.000000
										CHANNELS 3 Xrotation Yrotation Zrotation
										JOINT LeftHandIndex3
										{
											OFFSET 2.894196 0.000000 0.000000
											CHANNELS 3 Xrotation Yrotation Zrotation
											End Site
											{
												OFFSET -1.000603 2.690872 0.366626
											}
										}
									}
								}
								JOINT LeftHandMiddle1
								{
									OFFSET 13.776489 0.000000 0.000000
									CHANNELS 3 Xrotation Yrotation Zrotation
									JOINT LeftHandMiddle2
									{
										OFFSET 3.438232 0.000000 0.000000
										CHANNELS 3 Xrotation Yrotation Zrotation
										JOINT LeftHandMiddle3
										{
											OFFSET 3.691551 0.000000 0.000000
											CHANNELS 3 Xrotation Yrotation Zrotation
											End Site
											{
												OFFSET -1.082298 3.499527 0.457670
											}
										}
									}
								}
								JOINT LeftHandRing1
								{
									OFFSET 13.966164 -0.268127 -3.067488
									CHANNELS 3 Xrotation Yrotation Zrotation
									JOINT LeftHandRing2
									{
										OFFSET 3.162567 0.000000 0.000000
										CHANNELS 3 Xrotation Yrotation Zrotation
										JOINT LeftHandRing3
										{
											OFFSET 3.324348 0.000000 0.000000
											CHANNELS 3 Xrotation Yrotation Zrotation
											End Site
											{
												OFFSET -0.861900 3.184998 0.405154
											}
										}
									}
								}
								JOINT LeftHandPinky1
								{
									OFFSET 13.131393 -0.168503 -5.746925
									CHANNELS 3 Xrotation Yrotation Zrotation
									JOINT LeftHandPinky2
									{
										OFFSET 2.849182 0.000000 0.000000
										CHANNELS 3 Xrotation Yrotation Zrotation
										JOINT LeftHandPinky3
										{
											OFFSET 2.805038 0.000000 0.000000
											CHANNELS 3 Xrotation Yrotation Zrotation
											End Site
											{
												OFFSET -0.882500 2.642609 0.325652
											}
										}
									}
								}
							}
							JOINT Left_Sleeve
							{
								OFFSET 6.592125 -0.646545 0.805568
								CHANNELS 3 Xrotation Yrotation Zrotation
								End Site
								{
									OFFSET -0.000179 20.275787 -0.000000
								}
							}
						}
					}
				}
				JOINT RightShoulder
				{
					OFFSET -5.731700 15.108002 -2.763700
					CHANNELS 3 Xrotation Yrotation Zrotation
					JOINT RightArm
					{
						OFFSET -9.825497 2.506317 -1.597400
						CHANNELS 3 Xrotation Yrotation Zrotation
						JOINT RightForeArm
						{
							OFFSET -21.966242 0.000000 0.000000
							CHANNELS 3 Xrotation Yrotation Zrotation
							JOINT RightHand
							{
								OFFSET -33.879032 0.000000 0.000000
								CHANNELS 3 Xrotation Yrotation Zrotation
								JOINT RightHandThumb1
								{
									OFFSET -6.715286 -2.359680 3.363841
									CHANNELS 3 Xrotation Yrotation Zrotation
									JOINT RightHandThumb2
									{
										OFFSET -2.507072 -1.447464 1.447461
										CHANNELS 3 Xrotation Yrotation Zrotation
										JOINT RightHandThumb3
										{
											OFFSET -2.898338 -1.673355 1.673357
											CHANNELS 3 Xrotation Yrotation Zrotation
											End Site
											{
												OFFSET 0.295959 3.727692 -0.131651
											}
										}
									}
								}
								JOINT RightHandIndex1
								{
									OFFSET -14.190811 -0.254547 3.840278
									CHANNELS 3 Xrotation Yrotation Zrotation
									JOINT RightHandIndex2
									{
										OFFSET -3.551727 0.000000 -0.000000
										CHANNELS 3 Xrotation Yrotation Zrotation
										JOINT RightHandIndex3
										{
											OFFSET -2.894196 0.000000 0.000000
											CHANNELS 3 Xrotation Yrotation Zrotation
											End Site
											{
												OFFSET 1.000603 2.690872 0.366626
											}
										}
									}
								}
								JOINT RightHandMiddle1
								{
									OFFSET -13.776489 0.000000 0.000000
									CHANNELS 3 Xrotation Yrotation Zrotation
									JOINT RightHandMiddle2
									{
										OFFSET -3.438232 0.000000 0.000000
										CHANNELS 3 Xrotation Yrotation Zrotation
										JOINT RightHandMiddle3
										{
											OFFSET -3.691551 0.000000 0.000000
											CHANNELS 3 Xrotation Yrotation Zrotation
											End Site
											{
												OFFSET 1.082298 3.499527 0.457670
											}
										}
									}
								}
								JOINT RightHandRing1
								{
									OFFSET -13.966164 -0.268127 -3.067488
									CHANNELS 3 Xrotation Yrotation Zrotation
									JOINT RightHandRing2
									{
										OFFSET -3.162567 0.000000 0.000000
										CHANNELS 3 Xrotation Yrotation Zrotation
										JOINT RightHandRing3
										{
											OFFSET -3.324348 0.000000 0.000000
											CHANNELS 3 Xrotation Yrotation Zrotation
											End Site
											{
												OFFSET 0.861900 3.184998 0.405154
											}
										}
									}
								}
								JOINT RightHandPinky1
								{
									OFFSET -13.131393 -0.168503 -5.746925
									CHANNELS 3 Xrotation Yrotation Zrotation
									JOINT RightHandPinky2
									{
										OFFSET -2.849182 0.000000 0.000000
										CHANNELS 3 Xrotation Yrotation Zrotation
										JOINT RightHandPinky3
										{
											OFFSET -2.805038 0.000000 0.000000
											CHANNELS 3 Xrotation Yrotation Zrotation
											End Site
											{
												OFFSET 0.882500 2.642609 0.325652
											}
										}
									}
								}
							}
							JOINT Right_Sleeve
							{
								OFFSET -6.592125 -0.646545 0.805568
								CHANNELS 3 Xrotation Yrotation Zrotation
								End Site
								{
									OFFSET 0.000179 20.275787 -0.000000
								}
							}
						}
					}
				}
				JOINT Bind_Right_JacketString
				{
					OFFSET -3.534800 11.969597 7.200700
					CHANNELS 3 Xrotation Yrotation Zrotation
					JOINT Bind_Right_JacketString1
					{
						OFFSET -0.319900 -6.102600 2.794100
						CHANNELS 3 Xrotation Yrotation Zrotation
						End Site
						{
							OFFSET 0.000000 6.719452 0.000000
						}
					}
				}
				JOINT Bind_Left_JacketString
				{
					OFFSET 2.904800 11.969597 7.200700
					CHANNELS 3 Xrotation Yrotation Zrotation
					JOINT Bind_Left_JacketString1
					{
						OFFSET 0.364800 -5.904503 3.186800
						CHANNELS 3 Xrotation Yrotation Zrotation
						End Site
						{
							OFFSET 0.000000 6.719513 0.000000
						}
					}
				}
				JOINT HairE
				{
					OFFSET 5.915200 17.612701 -11.592200
					CHANNELS 3 Xrotation Yrotation Zrotation
					JOINT HairE1
					{
						OFFSET 0.289200 -7.171898 -1.284500
						CHANNELS 3 Xrotation Yrotation Zrotation
						End Site
						{
							OFFSET 0.000000 7.291756 0.000000
						}
					}
				}
				JOINT HairF
				{
					OFFSET -0.864800 17.612701 -11.592200
					CHANNELS 3 Xrotation Yrotation Zrotation
					JOINT HairF1
					{
						OFFSET 0.000000 -14.087097 -2.127501
						CHANNELS 3 Xrotation Yrotation Zrotation
						End Site
						{
							OFFSET 0.000000 14.246841 0.000000
						}
					}
				}
				JOINT HairG
				{
					OFFSET -8.087700 17.612701 -11.592200
					CHANNELS 3 Xrotation Yrotation Zrotation
					JOINT HairG1
					{
						OFFSET -0.293600 -6.081398 -0.910100
						CHANNELS 3 Xrotation Yrotation Zrotation
						End Site
						{
							OFFSET 0.000000 6.156120 0.000000
						}
					}
				}
			}
		}
	}
	JOINT Pouch
	{
		OFFSET 0.000000 4.394501 10.847300
		CHANNELS 3 Xrotation Yrotation Zrotation
		End Site
		{
			OFFSET 0.000000 21.880577 0.000000
		}
	}
	JOINT Bag
	{
		OFFSET -13.229000 4.813004 -0.593300
		CHANNELS 3 Xrotation Yrotation Zrotation
		End Site
		{
			OFFSET 0.000000 21.880577 0.000000
		}
	}
	JOINT OccupyGuyFacialAnim_Joint
	{
		OFFSET 1.000000 -70.206398 -1.655000
		CHANNELS 3 Xrotation Yrotation Zrotation
		End Site
		{
			OFFSET 0.000000 21.880577 0.000000
		}
	}
}
MOTION
Frames: 4
Frame Time: 0.016667
-12.735050 60.704651 -0.931585 -6.209820 -41.744996 2.167255 -0.000000 -0.000001 0.000000 -22.554652 9.613363 22.157805 51.107345 -9.257037 9.573220 -23.598934 -10.174339 -25.777593 0.000000 -0.000001 0.000000 -0.000000 0.000001 -0.000000 -30.070365 -9.748676 -33.413975 59.358538 -9.528327 -8.667277 -20.549724 -6.094514 23.608981 -0.000000 0.000000 -0.000000 0.000001 -0.000002 -0.000001 9.628215 6.427792 -1.500852 2.766068 -0.356990 -2.318342 2.765117 -0.254314 -2.356227 2.319645 13.599719 3.258863 11.523868 19.676546 -2.051258 0.000001 0.000000 -0.000000 0.000001 0.000000 -0.000000 0.000001 0.000000 0.000000 0.000001 0.000000 -0.000000 -0.000000 0.000000 -0.000000 0.000001 0.000000 -0.000000 -0.000000 0.000000 -0.000000 0.000001 0.000000 -0.000000 0.000001 0.000000 -0.000000 2.217711 0.696465 -13.443604 -68.029743 -0.403279 -40.075715 -0.000000 -108.716777 -0.000007 0.135991 -4.421001 -12.826693 -6.141200 -11.690805 -6.761700 9.914146 42.595512 3.409849 0.000003 -0.000002 -0.000002 0.255313 3.378228 -45.814344 5.654079 5.847737 -88.067435 0.000001 -0.000000 0.000003 -0.461467 3.841593 -39.722676 6.450736 5.820344 -95.892837 0.000002 0.000001 -0.000003 0.469723 4.966802 -39.799444 8.181048 5.368625 -113.502991 -0.000002 0.000001 0.000001 -3.762426 9.063702 -45.253814 5.342527 5.829004 -85.005297 -0.000000 -0.000001 0.000001 -0.000001 -0.000001 0.000002 2.599453 11.718731 -12.158732 -64.262914 18.736199 84.603149 0.004320 87.058172 -0.004336 -17.320429 37.211950 21.718817 -7.341080 13.749668 7.412327 9.855791 -44.489100 -3.903250 -0.000002 0.000001 -0.000000 -0.124372 -2.384805 45.108868 4.500570 -4.654521 88.071164 -0.000000 0.000001 0.000000 -0.761618 -2.932915 39.031065 5.133883 -4.632757 95.881642 0.000000 0.000001 -0.000001 0.154757 -4.068801 39.122675 6.509738 -4.273612 113.462863 0.000000 0.000001 -0.000001 -4.198875 -8.025527 44.637772 4.252918 -4.639644 85.014825 0.000000 0.000002 -0.000003 0.000003 -0.000001 0.000002 0.000000 -0.000002 0.000000 0.000001 -0.000000 0.000000 0.000000 -0.000002 0.000000 0.000000 -0.000002 0.000000 0.000000 -0.000002 0.000000 0.000001 -0.000000 0.000000 0.000000 -0.000002 0.000000 0.000000 -0.000002 0.000000 0.000000 -0.000002 0.000000 0.000001 -0.000000 0.000000 -0.000000 -0.000001 0.000000 -0.000000 -0.000001 0.000000 -0.000000 -0.000001 0.000000 
-13.294771 60.995522 -1.178910 -6.547127 -41.915355 2.079568 -0.000000 -0.000002 -0.000000 -22.613996 9.209471 22.205534 51.423681 -9.402637 9.992961 -20.917859 -9.659750 -26.110696 0.000001 -0.000001 0.000000 0.000001 -0.000001 -0.000003 -29.663894 -10.324938 -33.310921 59.104202 -9.513307 -8.409419 -21.032511 -5.717412 22.991183 -0.000000 0.000001 -0.000000 0.000003 -0.000003 -0.000002 9.616105 6.283430 -1.409568 2.786420 -0.645109 -2.360985 2.784642 -0.532870 -2.409949 2.357355 13.650869 3.291965 11.963597 19.954410 -2.414291 0.000002 0.000000 0.000000 0.000002 0.000000 0.000000 0.000002 0.000000 0.000001 0.000002 0.000000 -0.000001 -0.000000 0.000000 0.000000 0.000002 0.000000 -0.000001 -0.000000 0.000000 0.000000 0.000002 0.000000 0.000000 0.000002 0.000000 0.000000 2.119627 1.326093 -13.029246 -67.198816 -0.218702 -41.239190 0.000181 -108.751276 0.000194 0.302973 -4.918413 -12.653559 -6.141198 -11.690810 -6.761699 9.914142 42.595512 3.409852 0.000000 -0.000002 0.000001 0.255312 3.378228 -45.814348 5.654076 5.847736 -88.067435 -0.000000 -0.000001 0.000001 -0.461469 3.841592 -39.722679 6.450737 5.820346 -95.892837 0.000000 0.000000 -0.000001 0.469722 4.966803 -39.799444 8.181044 5.368623 -113.502991 -0.000001 0.000001 -0.000001 -3.762426 9.063704 -45.253818 5.342527 5.829002 -85.005297 -0.000002 0.000000 -0.000001 0.000001 0.000000 0.000002 2.565273 11.280112 -12.138845 -64.922096 18.398004 84.997920 0.007572 87.809076 -0.007580 -17.630033 37.319740 21.737774 -7.341080 13.749667 7.412330 9.855790 -44.489100 -3.903246 -0.000001 0.000000 -0.000000 -0.124374 -2.384804 45.108864 4.500572 -4.654521 88.071164 0.000001 -0.000001 0.000002 -0.761620 -2.932915 39.031065 5.133882 -4.632758 95.881642 -0.000001 0.000000 -0.000002 0.154757 -4.068800 39.122678 6.509738 -4.273612 113.462870 -0.000001 0.000001 -0.000002 -4.198876 -8.025529 44.637772 4.252918 -4.639642 85.014825 -0.000002 0.000001 0.000001 0.000001 0.000003 -0.000001 -0.000001 0.000001 -0.000000 -0.000000 0.000001 -0.000000 -0.000001 0.000001 -0.000000 -0.000001 0.000001 -0.000000 -0.000001 0.000001 -0.000000 -0.000000 0.000001 -0.000000 -0.000001 0.000001 -0.000000 -0.000001 0.000001 -0.000000 -0.000001 0.000001 -0.000000 -0.000000 0.000001 -0.000000 -0.000000 -0.000002 -0.000000 -0.000000 -0.000002 -0.000000 -0.000000 -0.000002 -0.000000 
-13.832870 61.327278 -1.411884 -6.719656 -42.082199 2.095550 -0.000000 0.000001 -0.000001 -22.951835 8.677364 22.190069 52.039450 -9.470914 10.194961 -18.108066 -9.037004 -25.996409 0.000001 0.000001 -0.000000 0.000001 -0.000002 0.000002 -29.227670 -10.872978 -33.092219 58.637611 -9.503529 -8.192917 -21.379766 -5.452712 22.394409 -0.000000 -0.000001 -0.000000 0.000001 -0.000002 0.000001 9.595072 6.161408 -1.364095 2.771245 -0.888554 -2.411325 2.769533 -0.770342 -2.469699 2.323235 13.688413 3.351657 12.263287 20.206068 -2.684247 0.000001 0.000000 0.000001 0.000001 0.000000 0.000001 0.000001 0.000000 0.000001 0.000001 0.000000 0.000000 -0.000000 -0.000000 -0.000001 0.000001 0.000000 0.000000 -0.000000 -0.000000 -0.000001 0.000001 0.000000 0.000001 0.000001 0.000000 0.000001 2.040251 1.891027 -12.727011 -66.041898 -0.227484 -42.512709 0.000133 -108.614686 0.000134 0.616242 -5.150693 -12.859888 -6.141201 -11.690810 -6.761698 9.914145 42.595505 3.409849 0.000003 -0.000000 0.000002 0.255313 3.378227 -45.814341 5.654078 5.847737 -88.067435 0.000000 0.000001 -0.000003 -0.461468 3.841592 -39.722676 6.450736 5.820347 -95.892844 0.000002 0.000001 -0.000003 0.469724 4.966803 -39.799444 8.181049 5.368624 -113.502998 0.000002 -0.000001 -0.000001 -3.762428 9.063700 -45.253808 5.342530 5.829003 -85.005290 0.000003 -0.000001 0.000003 -0.000001 -0.000001 0.000001 2.522555 10.738734 -12.141174 -65.351277 18.105115 85.470037 0.018489 88.672699 -0.018590 -17.925695 37.372111 21.709924 -7.341079 13.749666 7.412333 9.855787 -44.489100 -3.903248 -0.000001 -0.000001 0.000000 -0.124374 -2.384803 45.108861 4.500572 -4.654519 88.071157 -0.000001 -0.000002 0.000005 -0.761619 -2.932914 39.031058 5.133883 -4.632757 95.881642 -0.000000 0.000000 0.000001 0.154757 -4.068800 39.122675 6.509738 -4.273613 113.462870 0.000001 0.000000 -0.000002 -4.198878 -8.025526 44.637769 4.252919 -4.639642 85.014825 -0.000000 0.000000 0.000006 0.000002 -0.000001 0.000000 -0.000001 0.000001 -0.000000 0.000000 -0.000002 0.000000 -0.000001 0.000001 -0.000000 -0.000001 0.000001 -0.000000 -0.000001 0.000001 -0.000000 0.000000 -0.000002 0.000000 -0.000001 0.000001 -0.000000 -0.000001 0.000001 -0.000000 -0.000001 0.000001 -0.000000 0.000000 -0.000002 0.000000 -0.000000 0.000001 -0.000001 -0.000000 0.000001 -0.000001 -0.000000 0.000001 -0.000001 
-14.344829 61.683495 -1.620840 -6.742098 -42.261471 2.196074 0.000001 -0.000003 -0.000000 -23.484367 8.129281 22.034663 53.049506 -9.078919 10.232855 -16.069378 -8.559337 -24.678843 0.000001 0.000001 -0.000000 0.000002 -0.000001 -0.000001 -28.767958 -11.368601 -32.754111 58.000764 -9.499399 -8.027321 -21.607930 -5.300478 21.832519 -0.000000 0.000000 -0.000000 0.000000 0.000001 0.000000 9.563834 6.070911 -1.353898 2.720343 -1.070407 -2.460027 2.719149 -0.949811 -2.525621 2.229915 13.710771 3.433354 12.372784 20.430353 -2.883345 0.000002 -0.000001 0.000000 0.000002 -0.000001 0.000000 0.000002 -0.000001 0.000001 0.000002 -0.000001 0.000000 -0.000002 -0.000000 0.000000 0.000002 -0.000001 0.000000 -0.000002 -0.000000 0.000000 0.000002 -0.000001 0.000000 0.000002 -0.000001 0.000000 1.997484 2.325003 -12.601865 -64.622503 -0.436650 -43.747754 -0.000194 -108.319424 -0.000180 1.063105 -5.154255 -13.436473 -6.141200 -11.690806 -6.761698 9.914145 42.595508 3.409858 -0.000001 0.000001 -0.000002 0.255314 3.378226 -45.814344 5.654075 5.847739 -88.067435 0.000001 -0.000001 -0.000000 -0.461465 3.841592 -39.722686 6.450738 5.820345 -95.892837 -0.000000 -0.000001 0.000002 0.469725 4.966801 -39.799447 8.181048 5.368621 -113.502991 0.000001 -0.000000 -0.000001 -3.762423 9.063702 -45.253821 5.342527 5.829002 -85.005290 -0.000002 -0.000001 -0.000001 0.000001 -0.000000 0.000001 2.474452 10.139578 -12.169916 -65.449318 17.878900 85.928363 -0.019900 89.657428 0.020480 -18.193396 37.393455 21.742316 -7.341079 13.749667 7.412325 9.855787 -44.489096 -3.903255 -0.000001 -0.000003 0.000003 -0.124372 -2.384805 45.108861 4.500571 -4.654519 88.071164 -0.000000 -0.000001 0.000007 -0.761619 -2.932916 39.031058 5.133884 -4.632757 95.881649 0.000001 -0.000000 -0.000001 0.154757 -4.068802 39.122678 6.509737 -4.273611 113.462870 0.000001 0.000000 0.000001 -4.198877 -8.025526 44.637769 4.252919 -4.639641 85.014818 0.000000 0.000001 0.000001 0.000000 0.000003 -0.000004 0.000001 0.000001 -0.000001 0.000001 0.000001 -0.000000 0.000001 0.000001 -0.000000 0.000001 0.000001 -0.000000 0.000001 0.000001 -0.000001 0.000001 0.000001 -0.000000 0.000001 0.000001 -0.000000 0.000001 0.000001 -0.000000 0.000001 0.000001 -0.000001 0.000001 0.000001 -0.000000 0.000001 -0.000003 -0.000000 0.000001 -0.000003 -0.000000 0.000001 -0.000003 -0.000000 
